<svg xmlns="http://www.w3.org/2000/svg" width="440" height="480" viewBox="0 0 440 480" font-family="-apple-system, Segoe UI, Roboto, sans-serif">
<rect width="440" height="480" rx="12" fill="#0a0e14"/>
<line x1="219.9" y1="240.0" x2="349.8" y2="315.0" stroke="#58a6ff" stroke-width="2.5" opacity="0.85"/>
<text x="284.9" y="277.5" fill="#adbac7" font-size="9.5" text-anchor="middle" dy="-3">Wife</text>
<line x1="219.9" y1="240.0" x2="219.9" y2="390.0" stroke="#58a6ff" stroke-width="2.5" opacity="0.85"/>
<text x="219.9" y="315.0" fill="#adbac7" font-size="9.5" text-anchor="middle" dy="-3">Brother</text>
<line x1="219.9" y1="240.0" x2="90.0" y2="315.0" stroke="#3fb950" stroke-width="2" opacity="0.85"/>
<text x="154.9" y="277.5" fill="#adbac7" font-size="9.5" text-anchor="middle" dy="-3">Associate</text>
<line x1="219.9" y1="240.0" x2="90.0" y2="165.0" stroke="#d29922" stroke-width="1.5" opacity="0.85"/>
<text x="154.9" y="202.5" fill="#adbac7" font-size="9.5" text-anchor="middle" dy="-3">Known Address</text>
<line x1="219.9" y1="240.0" x2="219.9" y2="90.0" stroke="#8b949e" stroke-width="1.5" opacity="0.85"/>
<text x="219.9" y="165.0" fill="#adbac7" font-size="9.5" text-anchor="middle" dy="-3">Registered</text>
<line x1="219.9" y1="240.0" x2="349.8" y2="165.0" stroke="#f85149" stroke-width="2" stroke-dasharray="5,3" opacity="0.85"/>
<text x="284.9" y="202.5" fill="#adbac7" font-size="9.5" text-anchor="middle" dy="-3">Arrest</text>
<line x1="90.0" y1="315.0" x2="90.0" y2="165.0" stroke="#d29922" stroke-width="1.5" opacity="0.85"/>
<text x="90.0" y="240.0" fill="#adbac7" font-size="9.5" text-anchor="middle" dy="-3">Address</text>
<circle cx="219.9" cy="240.0" r="29.400000000000002" fill="none" stroke="#f78166" stroke-width="2" opacity="0.4"/>
<circle cx="219.9" cy="240.0" r="23.400000000000002" fill="#1f6feb" stroke="#f78166" stroke-width="2"/>
<text x="219.9" y="240.0" fill="#e6edf3" font-size="11" text-anchor="middle" dy="37.400000000000006">Eric Fox</text>
<circle cx="349.8" cy="315.0" r="18" fill="#1f6feb" stroke="#58a6ff" stroke-width="2"/>
<text x="349.8" y="315.0" fill="#e6edf3" font-size="11" text-anchor="middle" dy="32">Jane Fox</text>
<circle cx="219.9" cy="390.0" r="18" fill="#1f6feb" stroke="#58a6ff" stroke-width="2"/>
<text x="219.9" y="390.0" fill="#e6edf3" font-size="11" text-anchor="middle" dy="32">Sam Fox</text>
<circle cx="90.0" cy="315.0" r="18" fill="#1f6feb" stroke="#58a6ff" stroke-width="2"/>
<text x="90.0" y="315.0" fill="#e6edf3" font-size="11" text-anchor="middle" dy="32">Rick Vale</text>
<circle cx="90.0" cy="165.0" r="18" fill="#238636" stroke="#3fb950" stroke-width="2"/>
<text x="90.0" y="165.0" fill="#e6edf3" font-size="11" text-anchor="middle" dy="32">3260 Jay St</text>
<circle cx="219.9" cy="90.0" r="18" fill="#8957e5" stroke="#a371f7" stroke-width="2"/>
<text x="219.9" y="90.0" fill="#e6edf3" font-size="11" text-anchor="middle" dy="32">Plate ABC-123</text>
<circle cx="349.8" cy="165.0" r="18" fill="#9e6a03" stroke="#d29922" stroke-width="2"/>
<text x="349.8" y="165.0" fill="#e6edf3" font-size="11" text-anchor="middle" dy="32">2020-01-30</text>
</svg>
